<?xml version="1.0" encoding="UTF-8" standalone="no"?>
<!-- Uploaded to: SVG Repo, www.svgrepo.com, Generator: SVG Repo Mixer Tools -->

<svg
   width="692.82025"
   height="797.71674"
   viewBox="0 0 20.784608 23.931502"
   fill="none"
   version="1.1"
   id="svg1"
   sodipodi:docname="hexagon.svg"
   inkscape:version="1.4 (86a8ad7, 2024-10-11)"
   xmlns:inkscape="http://www.inkscape.org/namespaces/inkscape"
   xmlns:sodipodi="http://sodipodi.sourceforge.net/DTD/sodipodi-0.dtd"
   xmlns="http://www.w3.org/2000/svg"
   xmlns:svg="http://www.w3.org/2000/svg">
  <defs
     id="defs1" />
  <sodipodi:namedview
     id="namedview1"
     pagecolor="#ffffff"
     bordercolor="#000000"
     borderopacity="0.25"
     inkscape:showpageshadow="2"
     inkscape:pageopacity="0.0"
     inkscape:pagecheckerboard="0"
     inkscape:deskcolor="#d1d1d1"
     inkscape:zoom="1"
     inkscape:cx="235"
     inkscape:cy="335.5"
     inkscape:window-width="2560"
     inkscape:window-height="1417"
     inkscape:window-x="1912"
     inkscape:window-y="-8"
     inkscape:window-maximized="1"
     inkscape:current-layer="svg1" />
  <path
     style="fill:#00ffff;stroke-width:0.0323281"
     d="M 9.9886547,23.71788 C 9.4333081,23.402705 4.5492801,20.587437 2.1329313,19.189655 L 0.0154419,17.964754 0.007721,11.970312 0,5.9758708 3.2230179,4.1170058 C 7.3662034,1.7274342 9.8804851,0.28238318 10.168976,0.124903 L 10.397788,0 11.898527,0.85994709 C 12.723935,1.3329176 14.076231,2.1101307 14.903631,2.587087 15.73103,3.0640433 17.392732,4.0216383 18.5963,4.7150758 l 2.188308,1.260795 -0.0073,5.9931192 -0.0073,5.993119 -1.76188,1.017938 c -6.049411,3.495085 -8.591656,4.954835 -8.623258,4.951449 -0.01347,-0.0015 -0.191802,-0.09758 -0.3962783,-0.213616 z"
     id="path2"
     inkscape:export-filename="hexagon.svg"
     inkscape:export-xdpi="95.435722"
     inkscape:export-ydpi="95.435722" />
</svg>
